<svg xmlns="http://www.w3.org/2000/svg" xmlns:xlink="http://www.w3.org/1999/xlink" width="1100" zoomAndPan="magnify" viewBox="0 0 824.88 824.999997" height="1100" preserveAspectRatio="xMidYMid meet" version="1.0"><defs><g/><clipPath id="78dbba42c2"><path d="M 6.300781 0.0585938 L 824.761719 0.0585938 L 824.761719 818.941406 L 6.300781 818.941406 Z M 6.300781 0.0585938 " clip-rule="nonzero"/></clipPath><clipPath id="7c47235fdb"><path d="M 441.597656 412.5 L 646.3125 412.5 L 646.3125 617.214844 L 441.597656 617.214844 Z M 441.597656 412.5 " clip-rule="nonzero"/></clipPath><clipPath id="05119e3444"><path d="M 543.953125 412.5 C 487.425781 412.5 441.597656 458.328125 441.597656 514.859375 C 441.597656 571.386719 487.425781 617.214844 543.953125 617.214844 C 600.484375 617.214844 646.3125 571.386719 646.3125 514.859375 C 646.3125 458.328125 600.484375 412.5 543.953125 412.5 Z M 543.953125 412.5 " clip-rule="nonzero"/></clipPath><clipPath id="328673d7b7"><path d="M 451.648438 431 L 613 431 L 613 588 L 451.648438 588 Z M 451.648438 431 " clip-rule="nonzero"/></clipPath><clipPath id="82a3d7d277"><path d="M 484 421.804688 L 615.875 421.804688 L 615.875 555 L 484 555 Z M 484 421.804688 " clip-rule="nonzero"/></clipPath></defs><g clip-path="url(#78dbba42c2)"><path fill="#54a4a6" d="M 415.742188 0.0585938 C 189.976562 0.0585938 6.300781 183.742188 6.300781 409.503906 C 6.300781 635.273438 189.976562 818.941406 415.742188 818.941406 C 641.503906 818.941406 825.183594 635.273438 825.183594 409.503906 C 825.183594 183.742188 641.503906 0.0585938 415.742188 0.0585938 Z M 415.742188 808.269531 C 195.863281 808.269531 16.976562 629.382812 16.976562 409.511719 C 16.976562 189.625 195.863281 10.742188 415.742188 10.742188 C 635.617188 10.742188 814.511719 189.628906 814.511719 409.507812 C 814.511719 629.382812 635.617188 808.269531 415.742188 808.269531 Z M 415.742188 808.269531 " fill-opacity="1" fill-rule="nonzero"/></g><path fill="#54a4a6" d="M 415.742188 32.027344 C 207.597656 32.027344 38.261719 201.367188 38.261719 409.503906 C 38.261719 617.648438 207.601562 786.984375 415.742188 786.984375 C 623.886719 786.984375 793.210938 617.644531 793.210938 409.503906 C 793.214844 201.367188 623.886719 32.027344 415.742188 32.027344 Z M 415.742188 32.027344 " fill-opacity="1" fill-rule="nonzero"/><g fill="#ffffff" fill-opacity="1"><g transform="translate(194.6269, 559.926413)"><g><path d="M 46.5625 0 L 46.5625 -358.328125 L 190.4375 -358.328125 C 227.53125 -358.328125 255.507812 -349.789062 274.375 -332.71875 C 293.25 -315.644531 302.6875 -292.070312 302.6875 -262 C 302.6875 -240.269531 297.171875 -222.460938 286.140625 -208.578125 C 275.117188 -194.691406 258.660156 -184.070312 236.765625 -176.71875 L 236.765625 -171.5625 C 248.035156 -166.664062 257.140625 -159.394531 264.078125 -149.75 C 271.023438 -140.113281 277.601562 -125.816406 283.8125 -106.859375 L 319.609375 0 L 246.8125 0 L 211.765625 -107.109375 C 208.171875 -117.890625 204.125 -126.257812 199.625 -132.21875 C 195.132812 -138.1875 189.414062 -142.519531 182.46875 -145.21875 C 175.53125 -147.914062 166.503906 -149.265625 155.390625 -149.265625 L 117.40625 -149.265625 L 117.40625 0 Z M 181.859375 -205.390625 C 216.171875 -205.390625 233.328125 -221.398438 233.328125 -253.421875 C 233.328125 -285.941406 216.171875 -302.203125 181.859375 -302.203125 L 117.40625 -302.203125 L 117.40625 -205.390625 Z M 181.859375 -205.390625 "/></g></g></g><g clip-path="url(#7c47235fdb)"><g clip-path="url(#05119e3444)"><path fill="#54a4a6" d="M 441.597656 412.5 L 646.3125 412.5 L 646.3125 617.214844 L 441.597656 617.214844 Z M 441.597656 412.5 " fill-opacity="1" fill-rule="nonzero"/></g></g><g clip-path="url(#328673d7b7)"><path fill="#ffffff" d="M 531.894531 431.039062 C 487.660156 431.039062 451.648438 466.222656 451.648438 509.429688 C 451.648438 552.640625 487.660156 587.820312 531.894531 587.820312 C 576.125 587.820312 612.136719 552.640625 612.136719 509.429688 C 612.136719 490.75 605.664062 474.042969 594.675781 460.359375 L 587.121094 469.105469 C 596.703125 480.628906 600.449219 493.421875 600.449219 509.429688 C 600.449219 546.460938 569.796875 576.386719 531.890625 576.386719 C 493.988281 576.386719 463.332031 546.457031 463.332031 509.429688 C 463.332031 472.402344 493.988281 442.457031 531.890625 442.457031 C 543.902344 442.457031 552.886719 444.144531 562.695312 449.433594 L 569.875 440.226562 C 558.390625 434.03125 545.910156 431.039062 531.894531 431.039062 Z M 531.894531 431.039062 " fill-opacity="1" fill-rule="evenodd"/></g><g clip-path="url(#82a3d7d277)"><path fill="#ffffff" d="M 502.195312 499.121094 C 505.429688 499.121094 507.875 501.714844 509.535156 506.902344 C 512.855469 516.628906 515.21875 521.492188 516.628906 521.492188 C 517.707031 521.492188 518.828125 520.679688 519.992188 519.058594 C 543.304688 482.585938 564.878906 453.082031 584.707031 430.550781 C 589.851562 424.714844 598.023438 421.796875 609.222656 421.796875 C 611.878906 421.796875 613.664062 422.039062 614.574219 422.527344 C 615.488281 423.011719 615.945312 423.621094 615.945312 424.347656 C 615.945312 425.484375 614.574219 427.714844 611.835938 431.035156 C 579.8125 468.644531 550.109375 508.359375 522.726562 550.1875 C 520.820312 553.105469 516.921875 554.566406 511.03125 554.566406 C 505.054688 554.566406 501.527344 554.320312 500.449219 553.835938 C 497.628906 552.621094 494.3125 546.417969 490.496094 535.234375 C 486.179688 522.832031 484.023438 515.050781 484.023438 511.890625 C 484.023438 508.488281 486.925781 505.203125 492.734375 502.042969 C 496.300781 500.097656 499.453125 499.125 502.191406 499.125 " fill-opacity="1" fill-rule="nonzero"/></g></svg>